<?xml version="1.0" standalone="no"?>
<!DOCTYPE svg PUBLIC "-//W3C//DTD SVG 20010904//EN"
 "http://www.w3.org/TR/2001/REC-SVG-20010904/DTD/svg10.dtd">
<svg version="1.0" xmlns="http://www.w3.org/2000/svg"
 width="1024.000000pt" height="1024.000000pt" viewBox="0 0 1024.000000 1024.000000"
 preserveAspectRatio="xMidYMid meet">

<g transform="translate(0.000000,1024.000000) scale(0.100000,-0.100000)"
fill="#000000" stroke="none">
<path d="M6411 8843 c-14 -3 -137 -49 -275 -103 -138 -54 -460 -180 -716 -280
-256 -100 -562 -220 -680 -265 -224 -88 -465 -182 -905 -355 -143 -56 -404
-157 -580 -225 -739 -285 -972 -377 -1007 -401 -40 -28 -78 -78 -105 -139 -28
-66 -23 -193 13 -280 l29 -70 5 -1710 5 -1710 23 -85 c34 -124 128 -309 209
-410 159 -198 392 -338 648 -391 66 -14 149 -19 315 -22 146 -3 240 -9 269
-18 68 -20 134 -87 183 -187 l43 -85 5 -326 c3 -179 10 -334 14 -344 20 -44
136 -63 195 -32 51 26 54 47 48 372 -4 267 -7 306 -26 371 -58 198 -191 379
-360 491 l-54 36 -271 6 c-233 6 -282 10 -351 28 -281 75 -484 267 -577 546
l-23 70 -3 1085 -3 1086 27 24 26 25 1951 3 c1348 2 1985 0 2059 -8 139 -14
258 -48 383 -110 121 -60 212 -127 326 -240 100 -99 173 -203 240 -344 69
-146 88 -224 99 -409 11 -183 22 -253 57 -351 38 -109 81 -178 219 -357 131
-171 154 -205 154 -237 0 -37 -38 -70 -108 -93 -115 -37 -169 -67 -217 -121
-79 -87 -92 -185 -45 -323 11 -32 20 -76 20 -97 0 -43 -27 -103 -59 -132 -27
-24 -26 -34 5 -90 32 -57 28 -82 -28 -168 -67 -103 -81 -148 -78 -258 7 -208
6 -217 -16 -247 -12 -15 -36 -37 -55 -48 -32 -19 -57 -20 -434 -25 l-400 -5
-80 -28 c-149 -53 -249 -138 -361 -307 -24 -37 -44 -77 -44 -89 0 -13 13 -36
29 -52 26 -25 37 -29 86 -29 72 0 116 19 151 66 68 88 116 132 177 160 l62 29
395 6 c436 6 465 10 569 72 66 39 115 95 150 167 27 58 31 114 20 325 -4 81
-4 81 42 160 63 110 73 145 72 248 -1 54 3 100 12 120 24 59 28 146 10 227
-30 132 -30 145 0 172 14 12 65 39 113 58 115 47 140 61 184 107 79 82 104
203 60 290 -12 23 -75 113 -140 200 -145 194 -172 233 -207 302 -49 99 -56
131 -66 306 -4 93 -13 194 -19 225 -52 264 -210 543 -432 762 l-118 117 0 473
c0 443 -2 476 -19 515 -12 26 -32 49 -53 60 -31 17 -121 18 -1933 23 l-1900 5
70 27 c39 15 174 67 300 117 127 49 372 144 545 211 173 67 360 139 415 160
676 264 894 348 1145 445 255 98 740 286 1035 402 105 41 155 84 155 134 0 29
-178 496 -223 584 -32 63 -65 102 -115 134 -81 51 -188 71 -281 54z m-169
-541 c123 -81 260 -171 306 -200 45 -29 80 -57 77 -61 -2 -5 -17 -12 -31 -15
-15 -4 -114 -40 -221 -81 -106 -41 -198 -75 -203 -75 -5 0 -142 84 -304 188
-162 103 -302 192 -312 197 -13 9 29 29 212 102 126 50 235 92 241 92 7 1 113
-65 235 -147z m-1334 -478 c97 -64 237 -155 311 -202 73 -48 128 -88 122 -90
-7 -2 -116 -44 -244 -93 l-231 -89 -201 133 c-110 73 -249 164 -308 202 -59
37 -104 72 -100 76 12 12 436 178 456 178 9 1 97 -51 195 -115z m-1447 -402
c13 -11 148 -99 299 -196 151 -98 279 -182 284 -186 10 -10 -8 -18 -265 -116
l-197 -75 -313 202 c-173 111 -316 204 -319 206 -2 2 5 6 15 9 11 3 115 43
230 88 116 46 217 84 226 85 9 1 27 -7 40 -17z m-736 -572 c43 -26 69 -87 62
-141 -19 -141 -196 -173 -259 -48 -35 67 -14 149 47 189 39 26 108 26 150 0z
m1434 -582 c-39 -51 -142 -184 -227 -295 l-156 -203 -265 0 -265 0 25 28 c14
15 93 114 175 221 82 106 175 226 207 267 l57 74 261 0 260 0 -72 -92z m1349
74 c-7 -10 -109 -143 -227 -295 l-213 -277 -269 0 -269 0 73 93 c39 51 142
183 227 294 l155 202 268 1 c257 0 268 -1 255 -18z m1224 -95 c-48 -63 -150
-195 -227 -295 l-140 -181 -268 0 -269 -1 47 58 c25 31 129 164 231 295 l186
237 264 0 264 0 -88 -113z m-4022 -15 c100 -50 106 -186 11 -249 -113 -76
-260 63 -197 185 39 76 113 101 186 64z"/>
<path d="M5130 5334 c-172 -62 -261 -242 -204 -410 9 -26 12 -50 7 -53 -16
-11 -117 -89 -232 -180 l-113 -89 -57 27 c-46 21 -70 26 -136 26 -96 -1 -151
-23 -219 -85 -98 -91 -129 -248 -70 -364 15 -31 15 -31 -24 -66 -21 -19 -81
-74 -133 -122 l-95 -87 -90 6 c-70 4 -102 2 -142 -11 -71 -24 -135 -84 -174
-164 -29 -58 -33 -76 -33 -147 0 -97 22 -151 90 -224 77 -83 180 -114 286 -87
l62 16 126 -122 c69 -67 129 -125 134 -128 4 -4 -1 -26 -12 -51 -33 -74 -36
-138 -12 -217 27 -90 79 -150 169 -194 59 -29 76 -33 147 -33 65 1 91 6 137
27 32 15 60 23 63 18 3 -5 75 -62 159 -125 85 -64 159 -121 165 -129 8 -9 7
-26 -5 -60 -22 -65 -15 -176 15 -234 98 -192 363 -232 517 -78 112 113 125
286 29 411 l-26 35 103 174 c57 96 106 175 110 175 3 1 15 -14 26 -31 10 -18
58 -97 106 -175 l87 -142 -35 -45 c-45 -59 -60 -106 -59 -186 1 -166 128 -297
299 -308 110 -7 174 17 250 92 43 43 66 76 77 110 21 60 22 160 3 213 l-14 40
183 141 183 141 59 -32 c51 -28 67 -32 138 -32 68 0 89 4 137 28 168 83 239
279 159 441 -37 75 -102 138 -164 159 l-42 14 -3 396 -2 396 53 26 c249 117
255 472 11 591 -92 45 -177 43 -300 -7 -29 -12 -34 -10 -120 52 -50 35 -123
87 -163 114 -128 88 -126 85 -111 131 7 21 13 71 13 109 0 288 -346 433 -548
230 -69 -68 -90 -124 -90 -235 0 -98 18 -155 59 -189 9 -8 16 -19 16 -26 0 -7
-42 -86 -93 -176 -51 -90 -98 -172 -103 -182 -9 -15 -28 12 -118 169 l-107
186 19 22 c135 145 75 405 -114 497 -62 29 -172 36 -234 13z m1365 -690 c214
-155 200 -139 179 -203 -13 -40 -15 -71 -11 -131 l6 -79 -182 -147 c-100 -81
-189 -153 -197 -160 -13 -11 -25 -11 -65 2 -49 15 -161 15 -210 -1 -15 -5 -24
1 -38 24 -9 16 -58 86 -107 154 -50 69 -90 130 -90 135 0 5 42 81 93 168 51
87 112 193 135 235 l42 77 45 -10 c52 -11 134 3 186 32 19 10 39 19 44 19 6 1
83 -51 170 -115z m-1396 84 c37 -18 62 -22 127 -21 79 1 82 0 94 -25 11 -24
73 -132 202 -348 26 -45 48 -86 48 -91 0 -5 -48 -76 -106 -159 -58 -82 -109
-155 -113 -162 -6 -10 -14 -10 -44 3 -42 17 -115 19 -169 5 l-36 -10 -195 156
-195 157 5 76 c4 54 1 89 -11 121 -8 24 -14 45 -13 46 1 0 47 36 102 80 119
94 248 192 254 193 3 1 25 -9 50 -21z m1695 -653 c18 -13 53 -34 79 -45 l47
-21 0 -393 0 -394 -42 -11 c-24 -6 -61 -21 -83 -35 l-39 -24 -36 26 c-122 91
-320 246 -320 252 0 4 10 29 22 56 33 74 32 191 -3 262 l-26 53 181 148 c99
82 182 150 184 150 2 1 18 -10 36 -24z m-2002 -129 l174 -140 -25 -53 -26 -53
-432 0 -431 0 -12 35 c-6 20 -23 49 -36 64 l-24 29 130 117 130 117 47 -24
c72 -35 178 -33 256 5 31 16 57 33 57 39 0 16 9 10 192 -136z m981 2 l96 -127
-32 -62 c-29 -56 -32 -71 -32 -148 0 -77 3 -92 31 -143 l31 -56 -44 -64 c-25
-34 -67 -98 -95 -140 -51 -80 -62 -89 -72 -63 -3 9 -43 73 -88 143 l-83 127
33 65 c31 60 33 71 30 145 -2 64 -9 91 -31 136 l-29 56 54 74 c30 41 72 100
93 132 21 31 39 56 40 55 1 -2 45 -60 98 -130z m-1255 -416 c273 -1 402 -5
402 -12 0 -6 9 -29 19 -50 l19 -39 -77 -59 c-42 -33 -120 -96 -174 -140 l-99
-81 -56 32 c-52 29 -65 32 -142 32 -66 0 -95 -5 -132 -22 l-47 -21 -116 124
-117 124 27 54 c32 66 29 63 63 61 15 -1 208 -3 430 -3z m660 -234 c44 -9 64
-8 115 6 51 14 63 15 70 4 4 -7 52 -85 107 -173 55 -88 100 -163 100 -166 0
-4 -40 -69 -88 -145 -49 -77 -108 -173 -132 -214 l-43 -75 -86 0 c-72 0 -93
-4 -127 -24 l-41 -23 -181 135 -180 136 14 38 c16 46 18 141 3 180 -10 26 -8
30 22 53 18 14 105 85 194 157 119 99 165 132 180 128 11 -3 44 -11 73 -17z
m902 -1 c36 -8 62 -6 119 6 l73 17 37 -30 c20 -17 109 -89 198 -161 142 -114
162 -134 158 -155 -3 -13 -7 -35 -10 -49 -5 -22 6 -90 20 -127 4 -11 -14 -31
-62 -66 -37 -28 -121 -91 -186 -141 -64 -50 -121 -91 -126 -91 -4 0 -23 8 -42
18 -25 12 -59 17 -127 18 l-94 1 -117 194 c-64 107 -125 205 -134 219 -16 25
-15 27 79 170 133 203 133 203 152 194 10 -4 37 -11 62 -17z"/>
</g>
</svg>
